<svg width="1600" height="1040" viewBox="0 0 1600 1040" fill="none" xmlns="http://www.w3.org/2000/svg"><defs><linearGradient id="bg" x1="80" y1="40" x2="1500" y2="1000" gradientUnits="userSpaceOnUse"><stop stop-color="#10182C"/><stop offset=".48" stop-color="#263664"/><stop offset="1" stop-color="#765DE3"/></linearGradient><linearGradient id="grid" x1="180" y1="220" x2="1260" y2="740" gradientUnits="userSpaceOnUse"><stop stop-color="#9DE7E3" stop-opacity=".82"/><stop offset="1" stop-color="#A7A2FF" stop-opacity=".18"/></linearGradient><filter id="blur"><feGaussianBlur stdDeviation="55"/></filter></defs><rect width="1600" height="1040" fill="url(#bg)"/><circle cx="1370" cy="170" r="290" fill="#63D6D0" fill-opacity=".35" filter="url(#blur)"/><circle cx="210" cy="980" r="350" fill="#9B6CFF" fill-opacity=".35" filter="url(#blur)"/><g stroke="url(#grid)" stroke-opacity=".52"><path d="M-100 804L400 456L758 642L1120 250L1700 440" stroke-width="3"/><path d="M-100 875L400 527L758 713L1120 321L1700 511" stroke-width="2"/><path d="M-100 940L400 592L758 778L1120 386L1700 576" stroke-width="2"/><path d="M320 205V840M588 85V940M855 0V960M1120 96V925M1388 200V860" stroke-width="1"/></g><g fill="#DAFFF9"><circle cx="400" cy="456" r="12"/><circle cx="758" cy="642" r="12"/><circle cx="1120" cy="250" r="12"/></g><g opacity=".96"><rect x="180" y="250" width="325" height="345" rx="20" fill="#0D1529" fill-opacity=".68" stroke="#A7B4FF" stroke-opacity=".45"/><rect x="218" y="297" width="173" height="13" rx="6.5" fill="#F6F7FF" fill-opacity=".72"/><rect x="218" y="337" width="250" height="7" rx="3.5" fill="#BBC6F0" fill-opacity=".48"/><path d="M220 532L275 484L332 508L391 414L466 452" stroke="#73E2C3" stroke-width="8" stroke-linecap="round"/><rect x="218" y="560" width="210" height="6" rx="3" fill="#BBC6F0" fill-opacity=".42"/></g><text x="180" y="173" fill="#EAF0FF" font-family="Arial, sans-serif" font-size="28" letter-spacing="8">CONNECTED OPERATIONS</text></svg>